<svg width="203" height="24" viewBox="0 0 203 24" fill="none" xmlns="http://www.w3.org/2000/svg">
<mask id="path-1-inside-1_866_9" fill="white">
<path d="M1.83057 16.935V16.7568H4.74182V16.935C4.74182 18.2322 5.19237 19.2076 6.09347 19.8611C6.99457 20.5048 8.25215 20.8266 9.86621 20.8266C11.4902 20.8266 12.728 20.4949 13.5795 19.8314C14.441 19.1581 14.8718 18.2867 14.8718 17.2172C14.8718 16.2369 14.4658 15.4546 13.6538 14.8704C12.8418 14.2763 11.2525 13.6574 8.88589 13.0138C6.46975 12.3404 4.76162 11.5482 3.7615 10.6372C2.77128 9.71632 2.27617 8.40922 2.27617 6.71594C2.27617 5.02266 2.93466 3.61655 4.25166 2.4976C5.56865 1.36875 7.39066 0.804321 9.71768 0.804321C12.0447 0.804321 13.8964 1.40341 15.2728 2.60157C16.6492 3.79974 17.3374 5.29993 17.3374 7.10213V7.28037H14.4262V7.10213C14.4262 5.96338 14.0301 5.04742 13.2379 4.35427C12.4556 3.65121 11.2822 3.29968 9.71768 3.29968C8.16303 3.29968 7.01438 3.6017 6.27171 4.20573C5.53895 4.79987 5.17256 5.59204 5.17256 6.58226C5.17256 7.53288 5.54885 8.28049 6.30142 8.82512C7.05399 9.36974 8.57398 9.95397 10.8614 10.5778C13.2577 11.2215 15.0055 12.0384 16.1046 13.0286C17.2137 14.0188 17.7682 15.4101 17.7682 17.2024C17.7682 18.9947 17.0552 20.4652 15.6293 21.6138C14.2133 22.7526 12.2923 23.322 9.86621 23.322C7.44017 23.322 5.49439 22.7526 4.02886 21.6138C2.56333 20.4652 1.83057 18.9056 1.83057 16.935Z"/>
<path d="M21.5706 22.8764V1.24992H24.4819V22.8764H21.5706Z"/>
<path d="M29.6063 22.8764V1.24992H36.8101C39.1768 1.24992 40.9988 1.83415 42.2762 3.00261C43.5635 4.16117 44.2071 5.70592 44.2071 7.63685C44.2071 9.56778 43.5635 11.1323 42.2762 12.3305C40.9988 13.5188 39.1768 14.1129 36.8101 14.1129H32.5175V22.8764H29.6063ZM32.5175 11.7364H36.8101C38.4836 11.7364 39.6471 11.3403 40.3007 10.5481C40.9641 9.74602 41.2958 8.7756 41.2958 7.63685C41.2958 6.4981 40.9641 5.54748 40.3007 4.78501C39.6471 4.02254 38.4836 3.64131 36.8101 3.64131H32.5175V11.7364ZM42.0831 22.8764L36.721 12.8949L39.6323 12.4493L45.3657 22.8764H42.0831Z"/>
<path d="M48.4997 22.8764V1.24992H62.3579V3.65616H51.411V10.5184H60.9765V12.9246H51.411V20.4701H62.5064V22.8764H48.4997Z"/>
<path d="M71.7452 14.8259V12.2117H80.271V14.8259H71.7452Z"/>
<path d="M90.193 12.7167V11.4096C90.193 8.07255 91.0644 5.47322 92.8072 3.6116C94.55 1.74008 96.778 0.804321 99.4912 0.804321C102.036 0.804321 104.016 1.46282 105.432 2.77981C106.849 4.09681 107.641 5.65146 107.809 7.44376L107.824 7.59229H104.913V7.44376C104.873 6.46344 104.393 5.52768 103.472 4.63648C102.551 3.74528 101.219 3.29968 99.4763 3.29968C97.585 3.29968 96.0551 4.02254 94.8866 5.46827C93.7182 6.90409 93.1339 8.88453 93.1339 11.4096V12.7167C93.1339 15.2418 93.7182 17.2271 94.8866 18.6729C96.0551 20.1087 97.6989 20.8266 99.8179 20.8266C100.927 20.8266 101.888 20.7127 102.699 20.485C103.511 20.2572 104.279 19.8958 105.002 19.4007V14.4397H99.5209V12.0334H107.824V20.4701C107.141 21.1732 106.116 21.8267 104.749 22.4308C103.383 23.0249 101.739 23.322 99.8179 23.322C96.8869 23.322 94.55 22.3912 92.8072 20.5295C91.0644 18.658 90.193 16.0537 90.193 12.7167Z"/>
<path d="M112.042 22.8764V1.24992H114.953V20.4701H125.425V22.8764H112.042Z"/>
<path d="M127.148 12.7167V11.4096C127.148 8.07255 128.019 5.47322 129.762 3.6116C131.505 1.74008 133.743 0.804321 136.476 0.804321C139.199 0.804321 141.432 1.74008 143.175 3.6116C144.918 5.47322 145.789 8.07255 145.789 11.4096V12.7167C145.789 16.0537 144.918 18.658 143.175 20.5295C141.432 22.3912 139.199 23.322 136.476 23.322C133.743 23.322 131.505 22.3912 129.762 20.5295C128.019 18.658 127.148 16.0537 127.148 12.7167ZM130.089 12.7167C130.089 15.2418 130.673 17.2222 131.842 18.658C133.01 20.0938 134.555 20.8117 136.476 20.8117C138.387 20.8117 139.927 20.0938 141.095 18.658C142.264 17.2222 142.848 15.2418 142.848 12.7167V11.4096C142.848 8.88453 142.264 6.90409 141.095 5.46827C139.927 4.03244 138.387 3.31453 136.476 3.31453C134.555 3.31453 133.01 4.03244 131.842 5.46827C130.673 6.90409 130.089 8.88453 130.089 11.4096V12.7167Z"/>
<path d="M150.037 22.8764V1.24992H157.33C159.558 1.24992 161.306 1.71037 162.573 2.63128C163.851 3.55219 164.489 5.00286 164.489 6.9833C164.489 8.17157 164.182 9.13704 163.568 9.8797C162.964 10.6224 162.207 11.1521 161.296 11.469V11.5284C162.405 11.8453 163.311 12.4295 164.014 13.2811C164.717 14.1327 165.069 15.2517 165.069 16.638C165.069 18.6184 164.4 20.1533 163.063 21.2425C161.736 22.3317 159.974 22.8764 157.776 22.8764H150.037ZM152.889 20.4701H157.776C159.291 20.4701 160.405 20.1235 161.118 19.4304C161.831 18.7372 162.187 17.8015 162.187 16.6231C162.187 15.4447 161.831 14.5139 161.118 13.8307C160.405 13.1474 159.291 12.8058 157.776 12.8058H152.889V20.4701ZM152.889 10.4293H157.33C158.845 10.4293 159.934 10.1273 160.598 9.52322C161.271 8.91919 161.608 8.0775 161.608 6.99816C161.608 5.91882 161.271 5.09198 160.598 4.51765C159.934 3.94332 158.845 3.65616 157.33 3.65616H152.889V10.4293Z"/>
<path d="M166.554 22.8764L174.887 1.10139H177.56L185.908 22.8764H182.848L176.847 6.61197C176.719 6.2753 176.605 5.94852 176.506 5.63165C176.417 5.31478 176.337 4.98801 176.268 4.65133H176.105C176.035 4.98801 175.951 5.31478 175.852 5.63165C175.763 5.94852 175.654 6.2753 175.525 6.61197L169.465 22.8764H166.554ZM170.134 17.2767L171.04 14.8556L181.378 14.8704L182.269 17.2915L170.134 17.2767Z"/>
<path d="M188.448 22.8764V1.24992H191.359V20.4701H201.831V22.8764H188.448Z"/>
<path d="M0.830566 20H202.831V24H0.830566V20Z"/>
</mask>
<path d="M1.83057 16.7568V15.7568H0.830566V16.7568H1.83057ZM4.74182 16.7568H5.74182V15.7568H4.74182V16.7568ZM6.09347 19.8611L5.50634 20.6707L5.51223 20.6749L6.09347 19.8611ZM13.5795 19.8314L14.1941 20.6203L14.1954 20.6193L13.5795 19.8314ZM13.6538 14.8704L13.0633 15.6775L13.0698 15.6821L13.6538 14.8704ZM8.88589 13.0138L8.61743 13.9771L8.62346 13.9787L8.88589 13.0138ZM3.7615 10.6372L3.08045 11.3695L3.0881 11.3765L3.7615 10.6372ZM4.25166 2.4976L4.89915 3.25969L4.90245 3.25686L4.25166 2.4976ZM17.3374 7.28037V8.28037H18.3374V7.28037H17.3374ZM14.4262 7.28037H13.4262V8.28037H14.4262V7.28037ZM13.2379 4.35427L12.5694 5.09809L12.5794 5.10684L13.2379 4.35427ZM6.27171 4.20573L6.90151 4.98249L6.90269 4.98153L6.27171 4.20573ZM10.8614 10.5778L10.5983 11.5426L10.602 11.5436L10.8614 10.5778ZM16.1046 13.0286L15.4353 13.7716L15.4386 13.7745L16.1046 13.0286ZM15.6293 21.6138L16.256 22.3931L16.2566 22.3926L15.6293 21.6138ZM4.02886 21.6138L3.41197 22.4009L3.41529 22.4035L4.02886 21.6138ZM21.5706 22.8764H20.5706V23.8764H21.5706V22.8764ZM21.5706 1.24992V0.249921H20.5706V1.24992H21.5706ZM24.4819 1.24992H25.4819V0.249921H24.4819V1.24992ZM24.4819 22.8764V23.8764H25.4819V22.8764H24.4819ZM29.6063 22.8764H28.6063V23.8764H29.6063V22.8764ZM29.6063 1.24992V0.249921H28.6063V1.24992H29.6063ZM42.2762 3.00261L41.6012 3.7405L41.6072 3.74591L42.2762 3.00261ZM42.2762 12.3305L42.9573 13.0627L42.9575 13.0625L42.2762 12.3305ZM32.5175 14.1129V13.1129H31.5175V14.1129H32.5175ZM32.5175 22.8764V23.8764H33.5175V22.8764H32.5175ZM32.5175 11.7364H31.5175V12.7364H32.5175V11.7364ZM40.3007 10.5481L39.5301 9.91073L39.5293 9.91172L40.3007 10.5481ZM40.3007 4.78501L39.5414 5.43582L39.5463 5.44143L40.3007 4.78501ZM32.5175 3.64131V2.64131H31.5175V3.64131H32.5175ZM42.0831 22.8764L41.2021 23.3496L41.4851 23.8764H42.0831V22.8764ZM36.721 12.8949L36.5697 11.9064L35.1699 12.1207L35.8401 13.3682L36.721 12.8949ZM39.6323 12.4493L40.5085 11.9675L40.1718 11.3551L39.481 11.4608L39.6323 12.4493ZM45.3657 22.8764V23.8764H47.0567L46.2419 22.3945L45.3657 22.8764ZM48.4997 22.8764H47.4997V23.8764H48.4997V22.8764ZM48.4997 1.24992V0.249921H47.4997V1.24992H48.4997ZM62.3579 1.24992H63.3579V0.249921H62.3579V1.24992ZM62.3579 3.65616V4.65616H63.3579V3.65616H62.3579ZM51.411 3.65616V2.65616H50.411V3.65616H51.411ZM51.411 10.5184H50.411V11.5184H51.411V10.5184ZM60.9765 10.5184H61.9765V9.51839H60.9765V10.5184ZM60.9765 12.9246V13.9246H61.9765V12.9246H60.9765ZM51.411 12.9246V11.9246H50.411V12.9246H51.411ZM51.411 20.4701H50.411V21.4701H51.411V20.4701ZM62.5064 20.4701H63.5064V19.4701H62.5064V20.4701ZM62.5064 22.8764V23.8764H63.5064V22.8764H62.5064ZM71.7452 14.8259H70.7452V15.8259H71.7452V14.8259ZM71.7452 12.2117V11.2117H70.7452V12.2117H71.7452ZM80.271 12.2117H81.271V11.2117H80.271V12.2117ZM80.271 14.8259V15.8259H81.271V14.8259H80.271ZM92.8072 3.6116L93.5372 4.29503L93.539 4.29309L92.8072 3.6116ZM107.809 7.44376L106.813 7.53727L106.814 7.54327L107.809 7.44376ZM107.824 7.59229V8.59229H108.929L108.819 7.49278L107.824 7.59229ZM104.913 7.59229H103.913V8.59229H104.913V7.59229ZM104.913 7.44376H105.913V7.42356L105.912 7.40339L104.913 7.44376ZM94.8866 5.46827L95.6623 6.09947L95.6644 6.09685L94.8866 5.46827ZM94.8866 18.6729L94.1089 19.3015L94.111 19.3041L94.8866 18.6729ZM105.002 19.4007L105.567 20.2257L106.002 19.9278V19.4007H105.002ZM105.002 14.4397H106.002V13.4397H105.002V14.4397ZM99.5209 14.4397H98.5209V15.4397H99.5209V14.4397ZM99.5209 12.0334V11.0334H98.5209V12.0334H99.5209ZM107.824 12.0334H108.824V11.0334H107.824V12.0334ZM107.824 20.4701L108.541 21.1671L108.824 20.876V20.4701H107.824ZM104.749 22.4308L105.148 23.3478L105.154 23.3454L104.749 22.4308ZM92.8072 20.5295L92.0753 21.211L92.0772 21.213L92.8072 20.5295ZM112.042 22.8764H111.042V23.8764H112.042V22.8764ZM112.042 1.24992V0.249921H111.042V1.24992H112.042ZM114.953 1.24992H115.953V0.249921H114.953V1.24992ZM114.953 20.4701H113.953V21.4701H114.953V20.4701ZM125.425 20.4701H126.425V19.4701H125.425V20.4701ZM125.425 22.8764V23.8764H126.425V22.8764H125.425ZM129.762 3.6116L130.492 4.29503L130.494 4.29309L129.762 3.6116ZM143.175 3.6116L142.443 4.29309L142.445 4.29502L143.175 3.6116ZM143.175 20.5295L143.905 21.213L143.907 21.211L143.175 20.5295ZM129.762 20.5295L129.03 21.211L129.032 21.213L129.762 20.5295ZM150.037 22.8764H149.037V23.8764H150.037V22.8764ZM150.037 1.24992V0.249921H149.037V1.24992H150.037ZM162.573 2.63128L161.985 3.44029L161.988 3.44246L162.573 2.63128ZM163.568 9.8797L162.798 9.24253L162.793 9.24872L163.568 9.8797ZM161.296 11.469L160.967 10.5245L160.296 10.7581V11.469H161.296ZM161.296 11.5284H160.296V12.2827L161.021 12.4899L161.296 11.5284ZM163.063 21.2425L162.432 20.4673L162.429 20.4696L163.063 21.2425ZM152.889 20.4701H151.889V21.4701H152.889V20.4701ZM152.889 12.8058V11.8058H151.889V12.8058H152.889ZM152.889 10.4293H151.889V11.4293H152.889V10.4293ZM160.598 9.52322L159.93 8.77882L159.925 8.78378L160.598 9.52322ZM160.598 4.51765L159.943 5.27373L159.949 5.27849L160.598 4.51765ZM152.889 3.65616V2.65616H151.889V3.65616H152.889ZM166.554 22.8764L165.62 22.519L165.101 23.8764H166.554V22.8764ZM174.887 1.10139V0.101388H174.199L173.953 0.743989L174.887 1.10139ZM177.56 1.10139L178.494 0.743433L178.248 0.101388H177.56V1.10139ZM185.908 22.8764V23.8764H187.362L186.842 22.5184L185.908 22.8764ZM182.848 22.8764L181.91 23.2225L182.151 23.8764H182.848V22.8764ZM176.847 6.61197L177.786 6.2658L177.781 6.25483L176.847 6.61197ZM176.506 5.63165L175.543 5.9024L175.547 5.91622L175.551 5.92993L176.506 5.63165ZM176.268 4.65133L177.247 4.44968L177.083 3.65133H176.268V4.65133ZM176.105 4.65133V3.65133H175.29L175.125 4.44968L176.105 4.65133ZM175.852 5.63165L174.898 5.33338L174.893 5.34708L174.889 5.36091L175.852 5.63165ZM175.525 6.61197L174.591 6.25482L174.588 6.26282L175.525 6.61197ZM169.465 22.8764V23.8764H170.16L170.402 23.2255L169.465 22.8764ZM170.134 17.2767L169.197 16.9262L168.692 18.2749L170.132 18.2767L170.134 17.2767ZM171.04 14.8556L171.041 13.8556L170.347 13.8546L170.103 14.5051L171.04 14.8556ZM181.378 14.8704L182.316 14.525L182.075 13.8714L181.379 13.8704L181.378 14.8704ZM182.269 17.2915L182.268 18.2915L183.703 18.2933L183.207 16.9461L182.269 17.2915ZM188.448 22.8764H187.448V23.8764H188.448V22.8764ZM188.448 1.24992V0.249921H187.448V1.24992H188.448ZM191.359 1.24992H192.359V0.249921H191.359V1.24992ZM191.359 20.4701H190.359V21.4701H191.359V20.4701ZM201.831 20.4701H202.831V19.4701H201.831V20.4701ZM201.831 22.8764V23.8764H202.831V22.8764H201.831ZM0.830566 20V19H-0.169434V20H0.830566ZM202.831 20H203.831V19H202.831V20ZM202.831 24V25H203.831V24H202.831ZM0.830566 24H-0.169434V25H0.830566V24ZM2.83057 16.935V16.7568H0.830566V16.935H2.83057ZM1.83057 17.7568H4.74182V15.7568H1.83057V17.7568ZM3.74182 16.7568V16.935H5.74182V16.7568H3.74182ZM3.74182 16.935C3.74182 18.4921 4.30054 19.7961 5.50636 20.6706L6.68058 19.0516C6.0842 18.6191 5.74182 17.9723 5.74182 16.935H3.74182ZM5.51223 20.6749C6.64448 21.4836 8.13488 21.8266 9.86621 21.8266V19.8266C8.36943 19.8266 7.34466 19.5259 6.67471 19.0474L5.51223 20.6749ZM9.86621 21.8266C11.6057 21.8266 13.0978 21.4744 14.1941 20.6203L12.965 19.0426C12.3581 19.5154 11.3746 19.8266 9.86621 19.8266V21.8266ZM14.1954 20.6193C15.293 19.7614 15.8718 18.6024 15.8718 17.2172H13.8718C13.8718 17.971 13.5891 18.5547 12.9637 19.0435L14.1954 20.6193ZM15.8718 17.2172C15.8718 15.9075 15.3047 14.8263 14.2379 14.0587L13.0698 15.6821C13.6269 16.083 13.8718 16.5664 13.8718 17.2172H15.8718ZM14.2443 14.0634C13.2667 13.3481 11.511 12.6914 9.14833 12.0488L8.62346 13.9787C10.9941 14.6234 12.4169 15.2045 13.0633 15.6774L14.2443 14.0634ZM9.15435 12.0505C6.78112 11.3891 5.25823 10.6479 4.4349 9.89794L3.0881 11.3765C4.26501 12.4485 6.15839 13.2917 8.61744 13.977L9.15435 12.0505ZM4.44251 9.90495C3.7047 9.21878 3.27617 8.20624 3.27617 6.71594H1.27617C1.27617 8.61221 1.83786 10.2138 3.08049 11.3695L4.44251 9.90495ZM3.27617 6.71594C3.27617 5.323 3.80047 4.19314 4.89914 3.25968L3.60418 1.73552C2.06886 3.03996 1.27617 4.72233 1.27617 6.71594H3.27617ZM4.90245 3.25686C5.98428 2.32957 7.54719 1.80432 9.71768 1.80432V-0.195679C7.23413 -0.195679 5.15302 0.407924 3.60087 1.73834L4.90245 3.25686ZM9.71768 1.80432C11.8716 1.80432 13.4675 2.35584 14.6162 3.35583L15.9294 1.84732C14.3253 0.450972 12.2178 -0.195679 9.71768 -0.195679V1.80432ZM14.6162 3.35583C15.7776 4.36682 16.3374 5.59333 16.3374 7.10213H18.3374C18.3374 5.00652 17.5208 3.23266 15.9294 1.84732L14.6162 3.35583ZM16.3374 7.10213V7.28037H18.3374V7.10213H16.3374ZM17.3374 6.28037H14.4262V8.28037H17.3374V6.28037ZM15.4262 7.28037V7.10213H13.4262V7.28037H15.4262ZM15.4262 7.10213C15.4262 5.70164 14.9249 4.50159 13.8964 3.60169L12.5794 5.10684C13.1353 5.59325 13.4262 6.22511 13.4262 7.10213H15.4262ZM13.9064 3.6105C12.8687 2.67796 11.4116 2.29968 9.71768 2.29968V4.29968C11.1529 4.29968 12.0425 4.62445 12.5695 5.09803L13.9064 3.6105ZM9.71768 2.29968C8.06647 2.29968 6.64316 2.61462 5.64073 3.42993L6.90269 4.98153C7.38559 4.58877 8.2596 4.29968 9.71768 4.29968V2.29968ZM5.64191 3.42898C4.66187 4.2236 4.17256 5.30782 4.17256 6.58226H6.17256C6.17256 5.87626 6.41602 5.37613 6.90151 4.98249L5.64191 3.42898ZM4.17256 6.58226C4.17256 7.84478 4.69563 8.89742 5.71515 9.63523L6.88769 8.015C6.40207 7.66357 6.17256 7.22097 6.17256 6.58226H4.17256ZM5.71515 9.63523C6.63333 10.2997 8.32103 10.9215 10.5983 11.5426L11.1245 9.61304C8.82692 8.98643 7.47464 8.43977 6.88769 8.015L5.71515 9.63523ZM10.602 11.5436C12.9364 12.1706 14.5072 12.9355 15.4353 13.7716L16.7739 12.2856C15.5037 11.1413 13.5791 10.2723 11.1208 9.61204L10.602 11.5436ZM15.4386 13.7745C16.2918 14.5364 16.7682 15.6312 16.7682 17.2024H18.7682C18.7682 15.1889 18.1355 13.5013 16.7706 12.2827L15.4386 13.7745ZM16.7682 17.2024C16.7682 18.6846 16.1982 19.8715 15.002 20.8351L16.2566 22.3926C17.9123 21.0589 18.7682 19.3048 18.7682 17.2024H16.7682ZM15.0026 20.8346C13.8159 21.7889 12.1408 22.322 9.86621 22.322V24.322C12.4437 24.322 14.6107 23.7162 16.256 22.3931L15.0026 20.8346ZM9.86621 22.322C7.59384 22.322 5.88511 21.7898 4.64243 20.8242L3.41529 22.4035C5.10366 23.7154 7.2865 24.322 9.86621 24.322V22.322ZM4.64574 20.8268C3.43791 19.8801 2.83057 18.619 2.83057 16.935H0.830566C0.830566 19.1921 1.68875 21.0502 3.41198 22.4009L4.64574 20.8268ZM22.5706 22.8764V1.24992H20.5706V22.8764H22.5706ZM21.5706 2.24992H24.4819V0.249921H21.5706V2.24992ZM23.4819 1.24992V22.8764H25.4819V1.24992H23.4819ZM24.4819 21.8764H21.5706V23.8764H24.4819V21.8764ZM30.6063 22.8764V1.24992H28.6063V22.8764H30.6063ZM29.6063 2.24992H36.8101V0.249921H29.6063V2.24992ZM36.8101 2.24992C39.0196 2.24992 40.5667 2.79418 41.6012 3.74048L42.9511 2.26475C41.4309 0.874124 39.334 0.249921 36.8101 0.249921V2.24992ZM41.6072 3.74591C42.6582 4.69184 43.2071 5.95313 43.2071 7.63685H45.2071C45.2071 5.45871 44.4687 3.63051 42.9451 2.25932L41.6072 3.74591ZM43.2071 7.63685C43.2071 9.32038 42.6578 10.6092 41.5949 11.5985L42.9575 13.0625C44.4691 11.6555 45.2071 9.81519 45.2071 7.63685H43.2071ZM41.5951 11.5983C40.5603 12.5609 39.0156 13.1129 36.8101 13.1129V15.1129C39.338 15.1129 41.4373 14.4767 42.9573 13.0627L41.5951 11.5983ZM36.8101 13.1129H32.5175V15.1129H36.8101V13.1129ZM31.5175 14.1129V22.8764H33.5175V14.1129H31.5175ZM32.5175 21.8764H29.6063V23.8764H32.5175V21.8764ZM32.5175 12.7364H36.8101V10.7364H32.5175V12.7364ZM36.8101 12.7364C38.5971 12.7364 40.1359 12.3192 41.072 11.1845L39.5293 9.91172C39.1584 10.3613 38.3701 10.7364 36.8101 10.7364V12.7364ZM41.0712 11.1855C41.8973 10.1869 42.2958 8.98487 42.2958 7.63685H40.2958C40.2958 8.56634 40.031 9.30519 39.5301 9.91073L41.0712 11.1855ZM42.2958 7.63685C42.2958 6.28949 41.8971 5.0963 41.0551 4.12859L39.5463 5.44143C40.0311 5.99867 40.2958 6.7067 40.2958 7.63685H42.2958ZM41.0599 4.13422C40.1209 3.0387 38.5871 2.64131 36.8101 2.64131V4.64131C38.3802 4.64131 39.1733 5.00638 39.5414 5.4358L41.0599 4.13422ZM36.8101 2.64131H32.5175V4.64131H36.8101V2.64131ZM31.5175 3.64131V11.7364H33.5175V3.64131H31.5175ZM42.964 22.4031L37.602 12.4217L35.8401 13.3682L41.2021 23.3496L42.964 22.4031ZM36.8723 13.8834L39.7836 13.4378L39.481 11.4608L36.5697 11.9064L36.8723 13.8834ZM38.756 12.9311L44.4894 23.3582L46.2419 22.3945L40.5085 11.9675L38.756 12.9311ZM45.3657 21.8764H42.0831V23.8764H45.3657V21.8764ZM49.4997 22.8764V1.24992H47.4997V22.8764H49.4997ZM48.4997 2.24992H62.3579V0.249921H48.4997V2.24992ZM61.3579 1.24992V3.65616H63.3579V1.24992H61.3579ZM62.3579 2.65616H51.411V4.65616H62.3579V2.65616ZM50.411 3.65616V10.5184H52.411V3.65616H50.411ZM51.411 11.5184H60.9765V9.51839H51.411V11.5184ZM59.9765 10.5184V12.9246H61.9765V10.5184H59.9765ZM60.9765 11.9246H51.411V13.9246H60.9765V11.9246ZM50.411 12.9246V20.4701H52.411V12.9246H50.411ZM51.411 21.4701H62.5064V19.4701H51.411V21.4701ZM61.5064 20.4701V22.8764H63.5064V20.4701H61.5064ZM62.5064 21.8764H48.4997V23.8764H62.5064V21.8764ZM72.7452 14.8259V12.2117H70.7452V14.8259H72.7452ZM71.7452 13.2117H80.271V11.2117H71.7452V13.2117ZM79.271 12.2117V14.8259H81.271V12.2117H79.271ZM80.271 13.8259H71.7452V15.8259H80.271V13.8259ZM91.193 12.7167V11.4096H89.193V12.7167H91.193ZM91.193 11.4096C91.193 8.24572 92.0161 5.91985 93.5372 4.29502L92.0772 2.92818C90.1127 5.02658 89.193 7.89938 89.193 11.4096H91.193ZM93.539 4.29309C95.0801 2.6382 97.0365 1.80432 99.4912 1.80432V-0.195679C96.5194 -0.195679 94.0199 0.841959 92.0753 2.93011L93.539 4.29309ZM99.4912 1.80432C101.865 1.80432 103.573 2.41586 104.751 3.51206L106.114 2.04757C104.46 0.50978 102.207 -0.195679 99.4912 -0.195679V1.80432ZM104.751 3.51206C106.002 4.67543 106.67 6.00828 106.813 7.53727L108.805 7.35025C108.612 5.29463 107.695 3.51819 106.114 2.04757L104.751 3.51206ZM106.814 7.54327L106.829 7.6918L108.819 7.49278L108.804 7.34425L106.814 7.54327ZM107.824 6.59229H104.913V8.59229H107.824V6.59229ZM105.913 7.59229V7.44376H103.913V7.59229H105.913ZM105.912 7.40339C105.859 6.09527 105.214 4.93123 104.167 3.91788L102.776 5.35508C103.571 6.12413 103.887 6.83161 103.913 7.48413L105.912 7.40339ZM104.167 3.91788C103.001 2.78927 101.383 2.29968 99.4763 2.29968V4.29968C101.055 4.29968 102.101 4.70129 102.776 5.35508L104.167 3.91788ZM99.4763 2.29968C97.2891 2.29968 95.471 3.15432 94.1089 4.83968L95.6644 6.09685C96.6392 4.89076 97.8809 4.29968 99.4763 4.29968V2.29968ZM94.111 4.83707C92.7524 6.50661 92.1339 8.73789 92.1339 11.4096H94.1339C94.1339 9.03117 94.684 7.30156 95.6623 6.09946L94.111 4.83707ZM92.1339 11.4096V12.7167H94.1339V11.4096H92.1339ZM92.1339 12.7167C92.1339 15.3889 92.7525 17.6233 94.1089 19.3015L95.6644 18.0443C94.6838 16.831 94.1339 15.0946 94.1339 12.7167H92.1339ZM94.111 19.3041C95.4982 21.0087 97.4469 21.8266 99.8179 21.8266V19.8266C97.9508 19.8266 96.6119 19.2087 95.6623 18.0417L94.111 19.3041ZM99.8179 21.8266C100.991 21.8266 102.047 21.7066 102.97 21.4478L102.429 19.5221C101.728 19.7189 100.863 19.8266 99.8179 19.8266V21.8266ZM102.97 21.4478C103.891 21.1894 104.757 20.7801 105.567 20.2257L104.437 18.5757C103.8 19.0114 103.132 19.325 102.429 19.5221L102.97 21.4478ZM106.002 19.4007V14.4397H104.002V19.4007H106.002ZM105.002 13.4397H99.5209V15.4397H105.002V13.4397ZM100.521 14.4397V12.0334H98.5209V14.4397H100.521ZM99.5209 13.0334H107.824V11.0334H99.5209V13.0334ZM106.824 12.0334V20.4701H108.824V12.0334H106.824ZM107.107 19.7732C106.547 20.3491 105.649 20.9395 104.345 21.5161L105.154 23.3454C106.582 22.7139 107.734 21.9972 108.541 21.1671L107.107 19.7732ZM104.351 21.5137C103.141 22.0398 101.64 22.322 99.8179 22.322V24.322C101.838 24.322 103.625 24.01 105.148 23.3478L104.351 21.5137ZM99.8179 22.322C97.1182 22.322 95.062 21.4749 93.5372 19.8461L92.0772 21.213C94.0379 23.3074 96.6555 24.322 99.8179 24.322V22.322ZM93.539 19.848C92.016 18.2125 91.193 15.8802 91.193 12.7167H89.193C89.193 16.2272 90.1128 19.1035 92.0753 21.211L93.539 19.848ZM113.042 22.8764V1.24992H111.042V22.8764H113.042ZM112.042 2.24992H114.953V0.249921H112.042V2.24992ZM113.953 1.24992V20.4701H115.953V1.24992H113.953ZM114.953 21.4701H125.425V19.4701H114.953V21.4701ZM124.425 20.4701V22.8764H126.425V20.4701H124.425ZM125.425 21.8764H112.042V23.8764H125.425V21.8764ZM128.148 12.7167V11.4096H126.148V12.7167H128.148ZM128.148 11.4096C128.148 8.24571 128.971 5.91985 130.492 4.29502L129.032 2.92818C127.068 5.02659 126.148 7.89938 126.148 11.4096H128.148ZM130.494 4.29309C132.034 2.63983 133.999 1.80432 136.476 1.80432V-0.195679C133.487 -0.195679 130.976 0.840329 129.03 2.93011L130.494 4.29309ZM136.476 1.80432C138.942 1.80432 140.903 2.63902 142.443 4.29309L143.907 2.93011C141.961 0.841141 139.456 -0.195679 136.476 -0.195679V1.80432ZM142.445 4.29502C143.966 5.91985 144.789 8.24571 144.789 11.4096H146.789C146.789 7.89938 145.869 5.02659 143.905 2.92818L142.445 4.29502ZM144.789 11.4096V12.7167H146.789V11.4096H144.789ZM144.789 12.7167C144.789 15.8802 143.966 18.2125 142.443 19.848L143.907 21.211C145.869 19.1035 146.789 16.2272 146.789 12.7167H144.789ZM142.445 19.8461C140.905 21.4909 138.943 22.322 136.476 22.322V24.322C139.455 24.322 141.959 23.2914 143.905 21.213L142.445 19.8461ZM136.476 22.322C133.997 22.322 132.031 21.4901 130.492 19.8461L129.032 21.213C130.979 23.2922 133.488 24.322 136.476 24.322V22.322ZM130.494 19.848C128.971 18.2125 128.148 15.8802 128.148 12.7167H126.148C126.148 16.2272 127.068 19.1035 129.03 21.211L130.494 19.848ZM129.089 12.7167C129.089 15.3884 129.707 17.6197 131.066 19.2892L132.617 18.0268C131.639 16.8247 131.089 15.0951 131.089 12.7167H129.089ZM131.066 19.2892C132.433 20.9684 134.267 21.8117 136.476 21.8117V19.8117C134.843 19.8117 133.588 19.2193 132.617 18.0268L131.066 19.2892ZM136.476 21.8117C138.677 21.8117 140.506 20.967 141.871 19.2892L140.32 18.0268C139.348 19.2207 138.097 19.8117 136.476 19.8117V21.8117ZM141.871 19.2892C143.23 17.6197 143.848 15.3884 143.848 12.7167H141.848C141.848 15.0951 141.298 16.8247 140.32 18.0268L141.871 19.2892ZM143.848 12.7167V11.4096H141.848V12.7167H143.848ZM143.848 11.4096C143.848 8.73788 143.23 6.50661 141.871 4.83707L140.32 6.09946C141.298 7.30157 141.848 9.03118 141.848 11.4096H143.848ZM141.871 4.83707C140.506 3.15929 138.677 2.31453 136.476 2.31453V4.31453C138.097 4.31453 139.348 4.9056 140.32 6.09946L141.871 4.83707ZM136.476 2.31453C134.267 2.31453 132.433 3.15791 131.066 4.83707L132.617 6.09946C133.588 4.90698 134.843 4.31453 136.476 4.31453V2.31453ZM131.066 4.83707C129.707 6.50661 129.089 8.73789 129.089 11.4096H131.089C131.089 9.03117 131.639 7.30156 132.617 6.09946L131.066 4.83707ZM129.089 11.4096V12.7167H131.089V11.4096H129.089ZM151.037 22.8764V1.24992H149.037V22.8764H151.037ZM150.037 2.24992H157.33V0.249921H150.037V2.24992ZM157.33 2.24992C159.433 2.24992 160.947 2.68605 161.985 3.44029L163.161 1.82227C161.664 0.734701 159.683 0.249921 157.33 0.249921V2.24992ZM161.988 3.44246C162.938 4.12724 163.489 5.23194 163.489 6.9833H165.489C165.489 4.77378 164.763 2.97713 163.158 1.8201L161.988 3.44246ZM163.489 6.9833C163.489 7.99497 163.231 8.71802 162.798 9.24255L164.339 10.5168C165.133 9.55605 165.489 8.34817 165.489 6.9833H163.489ZM162.793 9.24872C162.307 9.84625 161.704 10.2681 160.967 10.5245L161.624 12.4135C162.709 12.0361 163.622 11.3985 164.344 10.5107L162.793 9.24872ZM160.296 11.469V11.5284H162.296V11.469H160.296ZM161.021 12.4899C161.945 12.7539 162.675 13.2294 163.243 13.9178L164.785 12.6445C163.947 11.6297 162.865 10.9367 161.571 10.5669L161.021 12.4899ZM163.243 13.9178C163.763 14.5482 164.069 15.4231 164.069 16.638H166.069C166.069 15.0802 165.671 13.7172 164.785 12.6445L163.243 13.9178ZM164.069 16.638C164.069 18.3679 163.499 19.5975 162.432 20.4673L163.695 22.0177C165.301 20.709 166.069 18.8689 166.069 16.638H164.069ZM162.429 20.4696C161.326 21.3749 159.809 21.8764 157.776 21.8764V23.8764C160.139 23.8764 162.147 23.2886 163.698 22.0154L162.429 20.4696ZM157.776 21.8764H150.037V23.8764H157.776V21.8764ZM152.889 21.4701H157.776V19.4701H152.889V21.4701ZM157.776 21.4701C159.418 21.4701 160.837 21.0975 161.815 20.1474L160.421 18.7134C159.972 19.1496 159.164 19.4701 157.776 19.4701V21.4701ZM161.815 20.1474C162.757 19.2314 163.187 18.0176 163.187 16.6231H161.187C161.187 17.5853 160.904 18.2431 160.421 18.7134L161.815 20.1474ZM163.187 16.6231C163.187 15.229 162.757 14.0166 161.81 13.1087L160.426 14.5527C160.904 15.0113 161.187 15.6605 161.187 16.6231H163.187ZM161.81 13.1087C160.832 12.172 159.414 11.8058 157.776 11.8058V13.8058C159.167 13.8058 159.977 14.1229 160.426 14.5527L161.81 13.1087ZM157.776 11.8058H152.889V13.8058H157.776V11.8058ZM151.889 12.8058V20.4701H153.889V12.8058H151.889ZM152.889 11.4293H157.33V9.42927H152.889V11.4293ZM157.33 11.4293C158.935 11.4293 160.332 11.1172 161.271 10.2627L159.925 8.78378C159.536 9.13736 158.755 9.42927 157.33 9.42927V11.4293ZM161.265 10.2676C162.191 9.43728 162.608 8.30167 162.608 6.99816H160.608C160.608 7.85332 160.351 8.4011 159.93 8.77884L161.265 10.2676ZM162.608 6.99816C162.608 5.6963 162.191 4.56244 161.247 3.75682L159.949 5.27849C160.351 5.62152 160.608 6.14133 160.608 6.99816H162.608ZM161.252 3.76159C160.315 2.95012 158.926 2.65616 157.33 2.65616V4.65616C158.764 4.65616 159.554 4.93653 159.943 5.27371L161.252 3.76159ZM157.33 2.65616H152.889V4.65616H157.33V2.65616ZM151.889 3.65616V10.4293H153.889V3.65616H151.889ZM167.488 23.2338L175.821 1.45879L173.953 0.743989L165.62 22.519L167.488 23.2338ZM174.887 2.10139H177.56V0.101388H174.887V2.10139ZM176.627 1.45934L184.974 23.2343L186.842 22.5184L178.494 0.743433L176.627 1.45934ZM185.908 21.8764H182.848V23.8764H185.908V21.8764ZM183.786 22.5302L177.785 6.26583L175.909 6.95811L181.91 23.2225L183.786 22.5302ZM177.781 6.25483C177.659 5.93593 177.552 5.62882 177.46 5.33338L175.551 5.92993C175.657 6.26823 175.778 6.61466 175.913 6.96911L177.781 6.25483ZM177.468 5.36091C177.386 5.06783 177.312 4.76414 177.247 4.44968L175.289 4.85299C175.362 5.21187 175.447 5.56173 175.543 5.9024L177.468 5.36091ZM176.268 3.65133H176.105V5.65133H176.268V3.65133ZM175.125 4.44968C175.062 4.75488 174.986 5.04935 174.898 5.33338L176.807 5.92993C176.916 5.58021 177.008 5.22114 177.084 4.85299L175.125 4.44968ZM174.889 5.36091C174.809 5.64598 174.71 5.94388 174.591 6.25483L176.459 6.96911C176.598 6.60671 176.717 6.25107 176.815 5.9024L174.889 5.36091ZM174.588 6.26282L168.528 22.5272L170.402 23.2255L176.462 6.96112L174.588 6.26282ZM169.465 21.8764H166.554V23.8764H169.465V21.8764ZM171.07 17.6272L171.976 15.2061L170.103 14.5051L169.197 16.9262L171.07 17.6272ZM171.038 15.8556L181.376 15.8704L181.379 13.8704L171.041 13.8556L171.038 15.8556ZM180.439 15.2159L181.33 17.637L183.207 16.9461L182.316 14.525L180.439 15.2159ZM182.27 16.2915L170.135 16.2767L170.132 18.2767L182.268 18.2915L182.27 16.2915ZM189.448 22.8764V1.24992H187.448V22.8764H189.448ZM188.448 2.24992H191.359V0.249921H188.448V2.24992ZM190.359 1.24992V20.4701H192.359V1.24992H190.359ZM191.359 21.4701H201.831V19.4701H191.359V21.4701ZM200.831 20.4701V22.8764H202.831V20.4701H200.831ZM201.831 21.8764H188.448V23.8764H201.831V21.8764ZM0.830566 21H202.831V19H0.830566V21ZM201.831 20V24H203.831V20H201.831ZM202.831 23H0.830566V25H202.831V23ZM1.83057 24V20H-0.169434V24H1.83057Z" fill="#733753" mask="url(#path-1-inside-1_866_9)"/>
</svg>
